<?xml version="1.0" encoding="UTF-8"?>
<svg version="1.1" xmlns="http://www.w3.org/2000/svg" width="512" height="512">
<path d="M0 0 C1.66213735 -0.00679667 1.66213735 -0.00679667 3.35785323 -0.01373065 C7.0724989 -0.02639516 10.78699833 -0.02475292 14.50166321 -0.02310181 C17.16447495 -0.02908583 19.82727522 -0.03583452 22.49008179 -0.04345703 C28.97405032 -0.06005521 35.45798249 -0.06556607 41.94197049 -0.06668179 C47.21490791 -0.06763298 52.48783335 -0.07174686 57.76076698 -0.07808304 C72.7214096 -0.09569354 87.68202356 -0.10492241 102.64267661 -0.10342209 C103.44885703 -0.10334218 104.25503745 -0.10326227 105.08564758 -0.10317993 C106.29640077 -0.10305729 106.29640077 -0.10305729 107.53161363 -0.10293217 C120.60563354 -0.1021197 133.67953812 -0.12124797 146.75352468 -0.14945666 C160.18849339 -0.17821463 173.62340592 -0.1919953 187.05840617 -0.19026911 C194.59678411 -0.18960613 202.13504119 -0.19505769 209.67339134 -0.21662521 C216.09333739 -0.23487559 222.51310784 -0.23915299 228.93306866 -0.22560637 C232.20541997 -0.21909549 235.47736644 -0.22108283 238.74969864 -0.23631287 C242.30600555 -0.25178926 245.86143605 -0.24244002 249.41772461 -0.22705078 C250.43992857 -0.23733791 251.46213253 -0.24762503 252.51531237 -0.25822389 C264.1457217 -0.14745096 272.30403608 3.52227535 280.46119308 11.70015335 C282.2607728 13.50219807 284.08439422 15.27810713 285.90953064 17.05426025 C290.66938967 21.70115866 295.39089911 26.38612714 300.10835266 31.07601929 C301.39259408 32.35227519 301.39259408 32.35227519 302.70277977 33.65431404 C307.22454726 38.14951227 311.74274113 42.64827098 316.25849915 47.14950562 C319.98074652 50.85837183 323.71014465 54.55981545 327.44599915 58.25497437 C331.98148946 62.74108674 336.50452479 67.23940633 341.01894188 71.74672127 C342.73262155 73.45370829 344.45053718 75.15645423 346.17284584 76.85473442 C348.58234534 79.23249192 350.97546212 81.62567609 353.36543274 84.02304077 C354.07045425 84.71165695 354.77547577 85.40027313 355.50186157 86.10975647 C362.63363789 93.33181121 367.14142255 101.44134366 367.16054249 111.7019434 C367.16500033 112.81229389 367.16945818 113.92264439 367.17405111 115.06664187 C367.17377456 116.89624119 367.17377456 116.89624119 367.17349243 118.76280212 C367.17716912 120.05858922 367.18084581 121.35437632 367.18463391 122.6894297 C367.19464549 126.28890092 367.19836931 129.88835546 367.20102322 133.48783863 C367.2049285 137.36857808 367.21450635 141.24930436 367.22323608 145.1300354 C367.242989 154.5003518 367.25306294 163.87066927 367.26196387 173.24100128 C367.26634667 177.65127327 367.27171331 182.06154407 367.27695274 186.47181511 C367.29396004 201.12637998 367.30845678 215.78094409 367.31570148 230.43551731 C367.31761142 234.23747827 367.31953176 238.03943921 367.32148743 241.84140015 C367.32197117 242.78637609 367.32245491 243.73135204 367.32295331 244.70496362 C367.33126338 260.03162086 367.35661896 275.3582003 367.3890681 290.68482352 C367.4220934 306.4113488 367.44014593 322.13783445 367.44334573 337.86439461 C367.44551449 346.69810848 367.45431705 355.53170872 367.4798069 364.36538887 C367.50145169 371.88389645 367.50959498 379.4022628 367.49984012 386.92079801 C367.4952779 390.75918796 367.49729231 394.59728611 367.51660156 398.43563652 C367.53732257 402.59031 367.52730503 406.74432888 367.5140686 410.89903259 C367.53052247 412.731978 367.53052247 412.731978 367.54730874 414.60195261 C367.53872785 415.70969536 367.53014696 416.81743811 367.52130604 417.95874882 C367.52228285 418.91841212 367.52325966 419.87807543 367.52426606 420.86681944 C367.02632141 423.26742554 367.02632141 423.26742554 365.12258214 425.07431549 C361.58025471 427.09047044 359.06035607 426.65161931 355.02632141 426.26742554 C352.82109061 424.84469599 352.24502892 423.96302755 351.46760565 421.49042296 C350.95860535 418.92630158 350.90221393 416.56469239 350.90327358 413.94946671 C350.90128253 412.86513328 350.89929149 411.78079985 350.8972401 410.66360784 C350.90015294 409.47295618 350.90306579 408.28230452 350.90606689 407.05557251 C350.90478526 405.15771944 350.90478526 405.15771944 350.90347773 403.22152591 C350.90123901 399.70746558 350.90524557 396.19343567 350.91025579 392.67937922 C350.91456901 388.89072975 350.91311324 385.10208203 350.91235352 381.31343079 C350.91182884 374.74860476 350.91496981 368.18378867 350.92059135 361.61896515 C350.9287139 352.1272998 350.93132235 342.63563926 350.93257935 333.14397082 C350.93476867 317.74485274 350.94142555 302.34573996 350.95088196 286.94662476 C350.96005915 271.98666409 350.96713848 257.02670486 350.97138977 242.06674194 C350.97178386 240.68384583 350.97178386 240.68384583 350.9721859 239.27301243 C350.97349093 234.64801696 350.97475464 230.02302148 350.97599781 225.39802599 C350.98636671 187.02115547 351.00398181 148.64429085 351.02632141 110.26742554 C350.11922928 110.27630798 349.21213715 110.28519043 348.27755737 110.29434204 C339.7009011 110.37471433 331.12437255 110.43550464 322.54742527 110.47467422 C318.13861499 110.49548922 313.73011765 110.52369447 309.32148743 110.56918335 C305.06152232 110.61285983 300.80185696 110.63660836 296.5416851 110.64693451 C294.92187219 110.65428698 293.30207443 110.66864421 291.68239021 110.69034576 C275.41779352 110.89946892 275.41779352 110.89946892 268.02632141 106.26742554 C267.11882141 105.71055054 266.21132141 105.15367554 265.27632141 104.57992554 C259.30165016 98.4392912 256.89848961 91.56035889 256.91279602 83.13388062 C256.91264999 82.41167831 256.91250397 81.68947601 256.91235352 80.94538879 C256.91304996 78.5592142 256.92082981 76.17311774 256.92866516 73.78695679 C256.93053029 72.13214663 256.93195375 70.47733593 256.93295288 68.82252502 C256.93677056 64.46761551 256.94659446 60.11273935 256.95765686 55.75784302 C256.96788708 51.31377616 256.97245396 46.8697039 256.97749329 42.42562866 C256.98821739 33.70621231 257.00528484 24.98682308 257.02632141 16.26742554 C224.18445352 16.22162936 191.34259392 16.18639682 158.50070137 16.16529488 C154.62179016 16.16279352 150.74287901 16.16020487 146.8639679 16.15756226 C146.09175946 16.15703763 145.31955103 16.15651301 144.52394234 16.1559725 C132.02698374 16.14727427 119.53004358 16.1315075 107.0330959 16.11311994 C94.20628284 16.0944047 81.37947941 16.08330538 68.55265325 16.07924855 C60.64036293 16.07650686 52.72812471 16.06785315 44.81585043 16.0515926 C38.74464449 16.03975261 32.67348321 16.0385183 26.6022644 16.04121017 C24.11464047 16.04066021 21.62701456 16.03668543 19.13940239 16.02901459 C15.73994725 16.01904664 12.34071407 16.02146358 8.94125366 16.0269165 C7.95971363 16.02109082 6.97817359 16.01526514 5.96688992 16.00926292 C-2.48182232 16.04582731 -10.27833186 16.66201897 -16.97367859 22.26742554 C-21.16661894 27.82023843 -22.12199045 31.85037147 -22.10510635 38.64762592 C-22.10715899 39.40905804 -22.10921162 40.17049015 -22.11132646 40.95499596 C-22.11701744 43.52719815 -22.11553663 46.09934716 -22.11412048 48.67155457 C-22.11670291 50.52602837 -22.11971573 52.38050162 -22.12312388 54.23497409 C-22.13121142 59.34732335 -22.13298443 64.45965859 -22.13372135 69.5720135 C-22.13556885 75.07928828 -22.14311462 80.58655573 -22.14985657 86.09382629 C-22.16345257 98.14325302 -22.1694665 110.19267642 -22.17386723 122.24210954 C-22.17662735 129.76151682 -22.18086426 137.2809228 -22.1853714 144.80032921 C-22.19756541 165.60724837 -22.20790006 186.41416671 -22.21124649 207.22108936 C-22.21146812 208.56685737 -22.21168991 209.91262538 -22.21191184 211.25839339 C-22.21213248 212.60743333 -22.21235297 213.95647326 -22.21257329 215.3055132 C-22.21301585 218.01197422 -22.21346296 220.71843523 -22.21391296 223.42489624 C-22.21402235 224.09594224 -22.21413175 224.76698824 -22.21424445 225.45836896 C-22.21787593 247.22221073 -22.2337993 268.98601921 -22.25710333 290.74984823 C-22.28168969 313.75325699 -22.29541203 336.75665209 -22.29661441 359.76007575 C-22.2975323 372.30226092 -22.30331318 384.84440251 -22.32143402 397.3865757 C-22.33680724 408.06485414 -22.34197191 418.74307552 -22.33369592 429.42136291 C-22.32977963 434.8721623 -22.33076664 440.32284669 -22.34475327 445.77363205 C-22.35743351 450.76078357 -22.35634662 455.74773298 -22.34416255 460.73488399 C-22.34219533 462.54175509 -22.34533095 464.34864022 -22.35400692 466.15549157 C-22.3650363 468.60714223 -22.35765638 471.05807161 -22.34561539 473.50970173 C-22.35321058 474.21503755 -22.36080577 474.92037338 -22.36863112 475.64708301 C-22.30503785 481.62422295 -20.51828804 485.47233888 -16.66117859 489.95492554 C-10.39895346 495.34335181 -4.13275025 496.39039213 3.92443562 496.39605999 C5.08731895 496.39928444 6.25020228 496.40250888 7.4483245 496.40583104 C8.71650321 496.40428244 9.98468192 496.40273383 11.29129028 496.40113831 C12.65948874 496.4030074 14.02768666 496.4053085 15.39588374 496.40800363 C19.15028074 496.4141158 22.90465546 496.41398872 26.65905631 496.41280925 C30.71028907 496.4126051 34.7615147 496.4181254 38.81274414 496.42286682 C46.74786628 496.43117072 54.68298099 496.43392154 62.61810712 496.4344792 C69.06859397 496.43495448 75.51907836 496.43700983 81.96956444 496.44017982 C100.26058525 496.44898565 118.5516002 496.45359931 136.84262315 496.45284935 C137.82854875 496.45280939 138.81447435 496.45276944 139.83027649 496.45272827 C140.81740679 496.45268739 141.80453709 496.45264651 142.82158043 496.45260439 C158.81978199 496.45219793 174.81796001 496.46176764 190.81615476 496.47586664 C207.24564013 496.4902314 223.67511403 496.49713677 240.10460585 496.49627286 C249.32744604 496.49594093 258.55026155 496.49868641 267.77309608 496.50945091 C275.62549464 496.51855722 283.47785733 496.52073008 291.33025888 496.51394149 C295.33539266 496.51067696 299.34045764 496.51061718 303.34558487 496.51929474 C307.01524716 496.5271636 310.68478613 496.52572439 314.35444542 496.51701061 C316.30399667 496.51475221 318.25355175 496.52230125 320.2030881 496.53025025 C329.31869674 496.49444211 337.76022037 496.35067292 345.02632141 490.26742554 C348.94286145 485.0806563 350.13644596 481.48421402 350.23725891 475.06039429 C350.26561829 473.83385132 350.29397766 472.60730835 350.32319641 471.34359741 C350.37504148 468.7630093 350.41938257 466.18225889 350.45600891 463.60140991 C350.48694641 462.37099976 350.51788391 461.1405896 350.54975891 459.87289429 C350.56957825 458.75036255 350.58939758 457.62783081 350.6098175 456.47128296 C351.08145561 452.84331882 352.14605051 450.39056299 354.02632141 447.26742554 C357.11805893 445.72155678 359.62061693 445.97383032 363.02632141 446.26742554 C365.21968079 447.81967163 365.21968079 447.81967163 367.02632141 450.26742554 C367.42554372 452.90266938 367.58837664 455.11240182 367.55757141 457.74398804 C367.56139832 458.46927704 367.56522522 459.19456604 367.56916809 459.9418335 C367.571886 461.47664782 367.56453304 463.01150855 367.54780579 464.54623413 C367.52657673 466.86454319 367.54750991 469.17968729 367.57319641 471.49789429 C367.59577912 483.09407851 365.65064098 492.04249831 358.15132141 501.15805054 C351.20060431 508.05765942 342.70231929 512.51154393 332.84988785 512.52469444 C331.62492009 512.53114334 330.39995234 512.53759223 329.13786435 512.54423654 C327.78681983 512.54129456 326.43577573 512.53815915 325.08473206 512.53485107 C323.6429981 512.53858892 322.20126618 512.54319098 320.75953746 512.54858172 C316.80182557 512.56081064 312.84419822 512.56055138 308.88647175 512.55819297 C304.61639415 512.55778477 300.34634365 512.56882425 296.07627869 512.57830811 C287.71168592 512.59491872 279.34712134 512.60041769 270.98251346 512.60153286 C264.18258515 512.60248335 257.38266615 512.60659369 250.58274078 512.61293411 C231.30070664 512.63054705 212.01869477 512.63977296 192.73665252 512.63827316 C191.69722373 512.63819325 190.65779493 512.63811334 189.58686829 512.63803101 C188.54616923 512.63794924 187.50547017 512.63786748 186.43323478 512.63778324 C169.56916597 512.63697043 152.70518649 512.65610675 135.84114352 512.68430774 C118.52232886 512.71304051 101.20355776 512.7268478 83.88471866 512.72512019 C74.16270853 512.7244564 64.44079205 512.72994374 54.71880341 512.75147629 C46.44077039 512.76969328 38.16287346 512.77403119 29.88482907 512.76045744 C25.66279769 512.75393028 21.44102735 512.75380137 17.21902084 512.77116394 C13.34995981 512.78691112 9.48136644 512.78401456 5.6123167 512.76659568 C4.21663212 512.76352936 2.82091251 512.76714431 1.42526928 512.77831583 C-10.07544414 512.86423794 -18.88574663 510.77903977 -27.86430359 503.39242554 C-34.58413761 496.62281497 -39.16341986 488.22632046 -39.24340397 478.59603846 C-39.23929333 477.8830775 -39.2351827 477.17011653 -39.23094749 476.43555069 C-39.23445357 475.66172519 -39.23795964 474.88789969 -39.24157196 474.09062493 C-39.25088556 471.49423371 -39.24596275 468.89806681 -39.24110413 466.30166626 C-39.24484041 464.42270403 -39.24944184 462.54374335 -39.25483477 460.66478515 C-39.26708295 455.49851193 -39.26680216 450.33230339 -39.26444602 445.16601896 C-39.26403831 439.59531878 -39.27507261 434.02463946 -39.28456116 428.45394897 C-39.3011822 417.53862962 -39.30667121 406.62333187 -39.30778591 395.70800093 C-39.30873588 386.83618155 -39.31284361 377.96436931 -39.31918716 369.09255219 C-39.33393575 348.0376044 -39.34623657 326.98266098 -39.34519005 305.92770767 C-39.34515889 305.25437167 -39.34512773 304.58103568 -39.34509563 303.88729556 C-39.34492942 300.47457367 -39.34473134 297.06185178 -39.34452622 293.6491299 C-39.34448633 292.97135542 -39.34444644 292.29358095 -39.34440534 291.59526785 C-39.34432446 290.22464238 -39.34424087 288.85401691 -39.34415455 287.48339145 C-39.34292918 266.16105001 -39.35793973 244.8387722 -39.38529968 223.51644897 C-39.41602862 199.55873052 -39.43320634 175.60105986 -39.43137324 151.64331603 C-39.43070898 138.95907308 -39.43621686 126.27490187 -39.45772934 113.59067535 C-39.47592795 102.79106349 -39.48029929 91.99155588 -39.46671049 81.19193533 C-39.46017418 75.68185675 -39.46008774 70.17197827 -39.47741699 64.66191864 C-39.4931232 59.61602561 -39.49030896 54.57049177 -39.47284873 49.52460763 C-39.46977345 47.70093178 -39.47343107 45.87722928 -39.48456888 44.05358484 C-39.55667752 31.40755803 -38.3850948 21.44908231 -30.09867859 11.37680054 C-21.28317165 2.62611351 -12.03036098 -0.03605768 0 0 Z M273.02632141 28.26742554 C272.91023527 35.85624784 272.82150923 43.44497756 272.76726055 51.03448677 C272.7412172 54.55906769 272.7059187 58.08303912 272.64912415 61.60726929 C272.58417162 65.6633168 272.56009784 69.71872877 272.53804016 73.77523804 C272.51223373 75.0348233 272.48642731 76.29440857 272.45983887 77.59216309 C272.29283141 84.81067032 272.29283141 84.81067032 275.43183899 91.04818726 C279.14873865 94.22750577 280.85770545 94.39118855 285.66938782 94.38095093 C286.85046112 94.3808754 288.03153442 94.38079987 289.24839783 94.38072205 C291.16874344 94.37298012 291.16874344 94.37298012 293.12788391 94.36508179 C295.08798904 94.36295937 295.08798904 94.36295937 297.08769226 94.36079407 C300.56308399 94.35697448 304.03843398 94.34714896 307.5138092 94.33609009 C311.05964086 94.32586397 314.60547926 94.32129387 318.15132141 94.31625366 C325.1096719 94.3055262 332.06799465 94.28845646 339.02632141 94.26742554 C335.17727314 89.66797531 331.19327738 85.28871711 326.94502258 81.05673218 C326.37029205 80.48024933 325.79556152 79.90376648 325.20341492 79.30981445 C323.32785842 77.42990257 321.44872326 75.55361744 319.56929016 73.67758179 C318.25732054 72.36493787 316.94549935 71.05214559 315.63381958 69.73921204 C312.89786632 67.00179086 310.16012813 64.26617103 307.4210968 61.53182983 C303.90243523 58.01889899 300.38832754 54.50145215 296.87551403 50.9826746 C294.17426513 48.27782441 291.4706543 45.57534525 288.76630592 42.87359428 C287.46852942 41.5764865 286.17149986 40.27863097 284.87521935 38.98002815 C283.07276245 37.17504821 281.26716024 35.37327662 279.46064758 33.57235718 C278.92197556 33.03166092 278.38330353 32.49096466 277.82830811 31.93388367 C275.77479345 29.39979377 275.77479345 29.39979377 273.02632141 28.26742554 Z " fill="#000000" transform="translate(91.97367858886719,-0.267425537109375)"/>
<path d="M0 0 C0.97036194 -0.00861557 1.94072388 -0.01723114 2.94049072 -0.02610779 C6.12279545 -0.04866293 9.30421203 -0.04204786 12.48657227 -0.03295898 C14.71420043 -0.03819923 16.94182637 -0.04447717 19.16944885 -0.05174255 C23.82872998 -0.06212756 28.48770534 -0.05761247 33.14697266 -0.04296875 C39.09973288 -0.0257854 45.05152743 -0.04928163 51.00417995 -0.08445835 C55.60177431 -0.10648291 60.19913941 -0.10497853 64.7967701 -0.09669304 C66.9906832 -0.09587628 69.18461361 -0.10268673 71.3784771 -0.11746407 C74.45343206 -0.13500292 77.52667447 -0.12028914 80.6015625 -0.09765625 C81.94306114 -0.11519455 81.94306114 -0.11519455 83.31166077 -0.13308716 C90.71951617 -0.02288019 96.95838622 2.30998698 102.70990658 7.05515194 C109.82015157 14.48997807 110.31225386 24.35365372 110.26953125 34.14257812 C110.2763945 35.25778336 110.28325775 36.37298859 110.29032898 37.52198792 C110.3085179 41.18088789 110.30477072 44.83935586 110.29907227 48.49829102 C110.30363769 51.05839679 110.30894434 53.61850134 110.31495667 56.17860413 C110.32387218 61.53383959 110.32171847 66.88891984 110.31152344 72.24414062 C110.30004608 78.40863465 110.31412267 84.5726934 110.34091991 90.73713011 C110.36585761 96.70013662 110.36823643 102.66300938 110.36180305 108.62607002 C110.36165025 111.14850145 110.36766075 113.67094142 110.38009453 116.19334221 C110.39506349 119.72752635 110.38428304 123.26076616 110.3671875 126.79492188 C110.38168945 128.33906265 110.38168945 128.33906265 110.39648438 129.91439819 C110.31484898 138.02230217 108.81912157 145.80836971 103.68188477 152.28735352 C102.9380957 152.88418945 102.19430664 153.48102539 101.42797852 154.09594727 C100.68676758 154.71598633 99.94555664 155.33602539 99.18188477 155.97485352 C92.16338698 160.69724916 84.23991367 160.68339568 76.05957031 160.67871094 C74.78002975 160.68374886 74.78002975 160.68374886 73.47463989 160.68888855 C70.67131062 160.698341 67.86804145 160.7003388 65.06469727 160.70141602 C63.10325598 160.7046326 61.14181494 160.70799697 59.18037415 160.71150208 C55.07418258 160.71747911 50.96801201 160.71934345 46.86181641 160.71875 C41.62001641 160.71864847 36.37835215 160.73229773 31.13658428 160.74952221 C27.08634329 160.7606825 23.03613469 160.76266797 18.9858799 160.76214027 C17.05433497 160.76331443 15.12278905 160.76770426 13.19125938 160.77547264 C-13.56910703 160.87302437 -13.56910703 160.87302437 -21.72436523 152.99829102 C-30.09306582 144.01574931 -29.58254899 134.03682534 -29.53295898 122.48657227 C-29.53498234 120.82606885 -29.53789596 119.16556631 -29.54165649 117.50506592 C-29.54606261 114.03869092 -29.53970102 110.57254895 -29.52563477 107.10620117 C-29.50849011 102.66522448 -29.51842797 98.22478968 -29.53635216 93.78383255 C-29.54719084 90.36087963 -29.54374422 86.93805536 -29.53596878 83.51509857 C-29.53396977 81.87724493 -29.53641554 80.23937955 -29.54340744 78.60153961 C-29.55102942 76.31583132 -29.53941068 74.031004 -29.52270508 71.74536133 C-29.5203183 70.44600647 -29.51793152 69.14665161 -29.51547241 67.80792236 C-29.11369776 64.35445635 -28.55934245 62.96723683 -26.13452148 60.53344727 C-24.26733398 59.74829102 -24.26733398 59.74829102 -22.25952148 59.47094727 C-21.60209961 59.3562207 -20.94467773 59.24149414 -20.26733398 59.12329102 C-16.62668429 59.82341596 -15.36623138 61.63256339 -13.13452148 64.53344727 C-12.3829883 68.04536606 -12.41312423 71.50286387 -12.42749023 75.08422852 C-12.41236893 76.09817184 -12.39724762 77.11211517 -12.38166809 78.15678406 C-12.33877265 81.38673103 -12.32995102 84.61574376 -12.32202148 87.84594727 C-12.29887872 90.03933151 -12.27351384 92.23269351 -12.24584961 94.42602539 C-12.18297937 99.79517486 -12.14805966 105.16395898 -12.13452148 110.53344727 C-11.56096924 110.00235352 -10.98741699 109.47125977 -10.39648438 108.92407227 C-5.9813573 104.90540371 -1.79865597 101.41710767 3.42797852 98.53344727 C4.46051758 97.95594727 5.49305664 97.37844727 6.55688477 96.78344727 C7.3187207 96.37094727 8.08055664 95.95844727 8.86547852 95.53344727 C8.66051758 94.93016602 8.45555664 94.32688477 8.24438477 93.70532227 C7.9749707 92.90610352 7.70555664 92.10688477 7.42797852 91.28344727 C7.16114258 90.49454102 6.89430664 89.70563477 6.61938477 88.89282227 C3.31155165 78.54084712 3.96672675 68.27009673 8.86547852 58.53344727 C13.98123056 49.81547929 21.32191446 44.37420556 30.87719727 41.22875977 C41.31405588 38.80031423 50.92961273 40.46344269 60.11547852 45.85375977 C67.80436893 51.1835588 73.27939247 58.76762569 75.42407227 67.91625977 C76.98091574 77.1471016 76.13825141 86.62428792 70.86547852 94.53344727 C71.78329102 95.10192383 72.70110352 95.67040039 73.64672852 96.25610352 C74.88654305 97.03568386 76.12611319 97.81565297 77.36547852 98.59594727 C77.96618164 98.96655273 78.56688477 99.3371582 79.18579102 99.71899414 C82.74476711 101.97175028 85.9517127 104.40219404 89.10571289 107.19921875 C89.81352905 107.82497299 90.52134521 108.45072723 91.25061035 109.09544373 C91.78351685 109.56998489 92.31642334 110.04452606 92.86547852 110.53344727 C92.93499048 99.27644942 92.98829595 88.01950264 93.02091503 76.76233387 C93.0365706 71.53516369 93.05780704 66.30814035 93.09179688 61.08105469 C93.12439398 56.0365778 93.14233235 50.99224216 93.15011024 45.94766808 C93.1556531 44.02313704 93.16647693 42.09861374 93.18266869 40.17414284 C93.20444755 37.47839275 93.20744524 34.78322626 93.20605469 32.08740234 C93.21684052 31.29186447 93.22762634 30.4963266 93.23873901 29.67668152 C93.21331558 25.12150973 92.72007457 22.14305099 89.86547852 18.53344727 C86.49816148 16.84978875 82.68576678 17.36783158 78.98120117 17.35644531 C77.60051704 17.34658852 77.60051704 17.34658852 76.19194031 17.33653259 C73.13780645 17.3167782 70.08372176 17.30513326 67.02954102 17.29516602 C65.98827435 17.29109049 64.94700768 17.28701496 63.87418747 17.28281593 C58.36477607 17.26194772 52.85538966 17.2476483 47.34594727 17.23828125 C41.6470443 17.22720516 35.94853056 17.19279342 30.2497654 17.15310955 C25.87463642 17.12700482 21.49960111 17.11859496 17.12440109 17.11499977 C15.0232009 17.11011921 12.92200529 17.09846371 10.82088089 17.07996178 C7.88311865 17.05569734 4.94637601 17.05651196 2.00854492 17.06347656 C1.13774796 17.0506665 0.26695099 17.03785645 -0.63023376 17.0246582 C-5.49807958 17.04364222 -5.49807958 17.04364222 -9.64346313 19.43782043 C-12.13163072 22.93484706 -12.23734594 25.08311289 -12.38452148 29.34594727 C-12.71083115 33.52773113 -12.93279606 35.23374092 -15.32202148 38.78344727 C-18.71210518 40.89283267 -20.21977352 41.34901976 -24.13452148 40.53344727 C-27.00952148 38.90844727 -27.00952148 38.90844727 -29.13452148 35.53344727 C-30.30899978 26.64730015 -29.69349205 17.92495009 -24.69311523 10.34985352 C-18.17525869 2.10801636 -10.20695572 -0.07431122 0 0 Z M24.99047852 63.47094727 C21.09720311 69.08184417 19.96099062 73.76109416 20.86547852 80.53344727 C22.72327389 86.4340587 25.80203368 90.09030478 30.86547852 93.53344727 C36.10332005 95.87375944 40.83905576 96.55332327 46.35766602 94.69360352 C52.6259731 91.93145633 56.05293439 88.78645234 58.86547852 82.53344727 C60.49878427 77.63353001 60.29745102 73.78616754 58.61547852 68.90844727 C55.27682984 62.46962482 51.77670847 58.8208809 44.86547852 56.53344727 C37.07434477 55.18733515 30.23844155 57.53246278 24.99047852 63.47094727 Z M-0.71655273 121.84204102 C-5.51939213 127.1880125 -10.34313387 133.18484795 -11.13452148 140.53344727 C-9.23239433 143.33658201 -7.35014944 143.88190068 -4.13452148 144.53344727 C-1.28362638 144.63827583 1.54316935 144.69063758 4.39428711 144.69458008 C5.6828083 144.70202744 5.6828083 144.70202744 6.99736023 144.70962524 C9.83622033 144.72421816 12.67502458 144.73104367 15.51391602 144.73657227 C17.48922731 144.74232555 19.46453859 144.74808326 21.43984985 144.75384521 C25.58075215 144.76434666 29.72163509 144.77019511 33.86254883 144.77368164 C39.16429883 144.77916821 44.46579226 144.80320338 49.76746178 144.83165359 C53.84757228 144.85029047 57.92762106 144.85548611 62.00777054 144.85701752 C63.96216868 144.86004159 65.91656579 144.86806182 67.87092209 144.8812027 C70.60677303 144.89828699 73.34199799 144.89637726 76.07788086 144.88989258 C76.88224075 144.89910736 77.68660065 144.90832214 78.51533508 144.91781616 C83.35666547 144.88193018 86.66066635 144.19535827 90.86547852 141.53344727 C92.12111282 139.72445431 92.12111282 139.72445431 91.86547852 137.53344727 C89.9750882 133.58959781 87.39144639 130.09623092 84.86547852 126.53344727 C84.42075195 125.88762695 83.97602539 125.24180664 83.51782227 124.57641602 C77.61564875 116.86929647 67.94768246 110.72165743 58.86547852 107.53344727 C56.3780511 107.54091843 56.3780511 107.54091843 54.17797852 108.28344727 C53.45223633 108.48454102 52.72649414 108.68563477 51.97875977 108.89282227 C51.28137695 109.10422852 50.58399414 109.31563477 49.86547852 109.53344727 C42.07888169 111.78048122 34.50288249 110.83487463 26.95922852 108.18969727 C17.67970059 105.28118851 5.43795753 115.88752961 -0.71655273 121.84204102 Z " fill="#000000" transform="translate(131.134521484375,64.466552734375)"/>
<path d="M0 0 C1.20947579 -0.00638882 2.41895159 -0.01277764 3.66507816 -0.01936007 C7.01950894 -0.03198403 10.37251697 -0.02216844 13.72682619 -0.00284529 C17.3451657 0.01257546 20.9634134 -0.0008185 24.58175659 -0.0105896 C31.66887645 -0.02512214 38.75571001 -0.01287626 45.84280276 0.00852364 C54.09427152 0.0325256 62.34567456 0.03081977 70.59717047 0.02821773 C85.3189902 0.02452678 100.04067497 0.04535972 114.76245117 0.07946777 C129.05089733 0.11255963 143.33920184 0.12672616 157.62768555 0.1204834 C173.18322068 0.11372049 188.73869646 0.11617678 204.29422283 0.1358428 C205.11667868 0.13688229 205.93913452 0.13792177 206.78651327 0.13899276 C208.43841633 0.14108367 210.09031936 0.14319464 211.74222237 0.14532593 C217.49523699 0.15222371 223.24823333 0.15289047 229.00125122 0.15144348 C236.01134734 0.15000427 243.02132789 0.1596855 250.03138566 0.18338984 C253.608708 0.19525594 257.1858692 0.20237099 260.7632103 0.19655228 C264.63896687 0.19043441 268.51441978 0.20753208 272.39013672 0.22705078 C274.09075555 0.21905889 274.09075555 0.21905889 275.82573032 0.21090555 C276.86368716 0.21996219 277.901644 0.22901883 278.97105408 0.23834991 C279.86562285 0.23992112 280.76019163 0.24149232 281.68186855 0.24311113 C284.76798609 0.70770967 286.67031491 1.81710828 289.19506836 3.62145996 C290.07788086 5.48864746 290.07788086 5.48864746 290.32006836 7.49645996 C290.47862305 8.48259277 290.47862305 8.48259277 290.64038086 9.48864746 C290.08891542 12.12987669 288.96153336 13.68976581 287.01971352 15.5414561 C282.94251777 17.95474019 277.90076858 17.29724531 273.30747986 17.24964905 C272.08913139 17.25674344 270.87078293 17.26383782 269.61551481 17.27114719 C266.23636407 17.28570865 262.85861378 17.2778289 259.4795655 17.26042426 C255.83465042 17.24706123 252.18984192 17.26248339 248.54493713 17.27424622 C241.40602579 17.2926347 234.26738798 17.2841028 227.12848514 17.26615799 C221.32770316 17.25213894 215.52699549 17.24823768 209.7261982 17.25160027 C208.90097289 17.25207771 208.07574758 17.25255515 207.22551544 17.25304706 C205.54916002 17.25407338 203.87280461 17.25512873 202.19644923 17.25621282 C187.37033195 17.26478219 172.54434684 17.24809666 157.71826172 17.21838379 C143.32595265 17.18954057 128.93383396 17.18246499 114.54150391 17.19787598 C98.87427035 17.21462909 83.2071272 17.21868186 67.5398913 17.20116562 C65.86996846 17.1993212 64.20004562 17.19748647 62.53012276 17.19566154 C61.70845568 17.19474946 60.88678861 17.19383737 60.04022254 17.19289764 C54.24464864 17.18728709 48.44911881 17.19060418 42.65354729 17.1972065 C35.59325976 17.20493017 28.53315977 17.19822197 21.4729101 17.17303146 C17.86933695 17.16051437 14.26605612 17.15441635 10.66247177 17.16557312 C6.76002423 17.17742727 2.85808353 17.15839894 -1.04432678 17.13612366 C-2.76098772 17.14848481 -2.76098772 17.14848481 -4.51232868 17.16109568 C-6.07672756 17.14452415 -6.07672756 17.14452415 -7.67273045 17.12761784 C-8.57375447 17.12642635 -9.47477849 17.12523487 -10.40310627 17.12400728 C-13.60754463 16.45352477 -14.80594836 15.16708185 -16.80493164 12.62145996 C-17.48643455 8.45671994 -17.37003029 6.46526996 -15.00758362 2.93764496 C-10.18295397 -0.55156801 -5.81591238 -0.06421431 0 0 Z " fill="#000000" transform="translate(119.804931640625,375.3785400390625)"/>
<path d="M0 0 C1.04703268 -0.01104769 2.09406535 -0.02209538 3.17282629 -0.03347784 C4.32183999 -0.02523708 5.47085368 -0.01699631 6.65468597 -0.00850582 C7.87626357 -0.01545135 9.09784116 -0.02239688 10.35643625 -0.02955288 C13.74905129 -0.04470442 17.14079213 -0.04186199 20.53336835 -0.03139985 C24.19125274 -0.02441925 27.84904666 -0.04039699 31.5069046 -0.05339718 C38.67331017 -0.07506124 45.8395571 -0.07490424 53.00598466 -0.06677163 C58.82919307 -0.06047708 64.65235514 -0.06160365 70.47556305 -0.06804371 C71.30369921 -0.06894536 72.13183537 -0.06984702 72.98506656 -0.070776 C74.66730051 -0.07262716 76.34953445 -0.07448972 78.03176838 -0.07636356 C93.81375901 -0.09295024 109.59566029 -0.08421527 125.37764555 -0.06737798 C139.82422059 -0.05267838 154.27058771 -0.06731149 168.71713597 -0.09614814 C183.54306734 -0.12552223 198.36890268 -0.13652036 213.19486189 -0.12696594 C214.87097897 -0.12594336 216.54709608 -0.12494876 218.2232132 -0.12398243 C219.04793937 -0.12350604 219.87266554 -0.12302965 220.72238341 -0.12253882 C226.54000854 -0.12037216 232.357543 -0.13019208 238.17514801 -0.14475346 C245.26292493 -0.16224625 252.35043663 -0.16220356 259.43820298 -0.1394018 C263.05601486 -0.12823182 266.67335896 -0.12515851 270.29115105 -0.14370251 C274.20904414 -0.16352674 278.1262002 -0.1447846 282.04409027 -0.12203121 C283.76761081 -0.1397848 283.76761081 -0.1397848 285.52594995 -0.15789706 C293.16965025 -0.06721189 293.16965025 -0.06721189 296.59112549 2.81885719 C298.30906615 6.4879029 297.92172047 8.64576141 296.84938812 12.50615788 C295.27052846 14.56554004 294.15796389 15.35186999 291.84938812 16.50615788 C290.23858759 16.60250322 288.62381239 16.63533235 287.0101347 16.63758564 C285.46738425 16.64334736 285.46738425 16.64334736 283.89346713 16.64922547 C282.75487366 16.64835899 281.6162802 16.64749251 280.4431839 16.64659977 C279.24035493 16.64957089 278.03752596 16.65254201 276.79824764 16.65560317 C273.44893941 16.66279906 270.09968245 16.6654637 266.75037014 16.66620064 C263.14222646 16.66804821 259.53409397 16.67559406 255.92595673 16.68233585 C248.03136465 16.69593203 240.13677765 16.70194592 232.24217582 16.70634651 C227.31499419 16.70910683 222.38781453 16.7133438 217.46063423 16.71785069 C203.82526237 16.73004514 190.18989208 16.74034403 176.55451488 16.74372578 C175.24483898 16.74405513 175.24483898 16.74405513 173.90870498 16.74439113 C172.59585074 16.74471855 172.59585074 16.74471855 171.2564742 16.74505258 C169.48283938 16.74549605 167.70920457 16.74594261 165.93556976 16.74639225 C165.05578096 16.74661368 164.17599216 16.74683511 163.26954309 16.74706325 C149.01110036 16.75101197 134.75270872 16.76846744 120.49428573 16.79175177 C105.86392567 16.81545111 91.23359127 16.82792698 76.6032117 16.82909369 C68.38534789 16.83001127 60.16755063 16.83578418 51.94970512 16.85391331 C44.95237234 16.86929521 37.95512667 16.87444611 30.9577802 16.8661752 C27.38653632 16.86226185 23.81546795 16.86323143 20.24424553 16.87723255 C16.37493513 16.89226382 12.5058733 16.88412519 8.63654327 16.87365055 C7.50464197 16.88170696 6.37274067 16.88976336 5.20653933 16.8980639 C3.65205402 16.88817913 3.65205402 16.88817913 2.06616497 16.87809467 C1.17300774 16.87869176 0.27985051 16.87928885 -0.6403721 16.87990403 C-3.73031245 16.41984705 -5.62496687 15.31503321 -8.15061188 13.50615788 C-9.69648063 10.41442036 -9.44420709 7.91186235 -9.15061188 4.50615788 C-6.35893961 0.89667767 -4.51512307 0.00594701 0 0 Z " fill="#000000" transform="translate(112.1506118774414,272.49384212493896)"/>
<path d="M0 0 C1.02352455 -0.00384115 2.04704911 -0.00768229 3.10158956 -0.01163983 C4.79343765 -0.01034011 4.79343765 -0.01034011 6.51946449 -0.00901413 C7.71498078 -0.01198525 8.91049707 -0.01495637 10.14224112 -0.01801753 C13.46648698 -0.02520548 16.79068117 -0.02787744 20.11493111 -0.028615 C23.69783547 -0.03046446 27.2807286 -0.0380112 30.86362648 -0.04475021 C38.70030993 -0.05833787 46.53698827 -0.06435878 54.37368155 -0.06876087 C59.26518901 -0.07152226 64.15669449 -0.0757594 69.04820061 -0.08026505 C82.58667756 -0.0924577 96.12515293 -0.1027574 109.66363525 -0.10614014 C110.53028218 -0.1063597 111.3969291 -0.10657927 112.28983805 -0.10680549 C113.5929453 -0.10713291 113.5929453 -0.10713291 114.92237794 -0.10746694 C116.68281833 -0.1079104 118.44325872 -0.10835697 120.20369911 -0.10880661 C121.07694118 -0.10902804 121.95018325 -0.10924947 122.84988721 -0.10947761 C137.0048021 -0.11342703 151.15966556 -0.13088546 165.31456058 -0.15416613 C179.84099116 -0.17786542 194.36739592 -0.19034132 208.89384615 -0.19150805 C217.05245046 -0.19242556 225.21098773 -0.19819682 233.36957359 -0.21632767 C240.31564539 -0.2317094 247.26162943 -0.23686051 254.20771502 -0.22858956 C257.75263788 -0.22467634 261.29738392 -0.22564521 264.84228516 -0.23964691 C268.68307871 -0.25467885 272.52362187 -0.24653932 276.3644352 -0.23606491 C277.48787248 -0.24412132 278.61130976 -0.25217772 279.7687906 -0.26047826 C281.31190068 -0.25059349 281.31190068 -0.25059349 282.88618469 -0.24050903 C283.77272433 -0.24110612 284.65926396 -0.24170321 285.57266843 -0.24231839 C288.67799501 0.22261776 290.53569998 1.29926758 293.06893349 3.13142776 C295.06893349 6.13142776 295.06893349 6.13142776 294.88143349 9.63142776 C293.85033708 14.07307384 293.85033708 14.07307384 291.06893349 16.13142776 C288.78374392 16.50862592 288.78374392 16.50862592 286.04136944 16.5117445 C284.99632781 16.52018444 283.95128618 16.52862438 282.87457663 16.53732008 C281.72265009 16.53131003 280.57072355 16.52529999 279.38389015 16.51910782 C278.16316698 16.52449336 276.94244382 16.52987889 275.68472904 16.53542763 C272.28998974 16.54728825 268.89573929 16.5456221 265.50101888 16.53826082 C261.84245077 16.53354381 258.18393607 16.54602594 254.5253849 16.55627823 C247.3555216 16.57350057 240.1857458 16.57429914 233.01586718 16.56906532 C227.189781 16.56502873 221.36372074 16.5664611 215.5376358 16.57181358 C214.29522833 16.57293622 214.29522833 16.57293622 213.02772171 16.57408153 C211.34524623 16.57561296 209.66277076 16.57715131 207.98029529 16.5786965 C192.19164728 16.59243399 176.40304877 16.58697511 160.61440187 16.57551128 C146.16132572 16.56557779 131.70837756 16.57851934 117.25532115 16.60244548 C102.42491077 16.62681186 87.59456006 16.63645041 72.76413006 16.62979275 C64.4339618 16.62629501 56.10389202 16.62856901 47.77373886 16.64604378 C40.68231278 16.66073506 33.59105451 16.66144168 26.49963183 16.64397287 C22.879859 16.6354349 19.26038632 16.63338083 15.64062881 16.64862442 C11.72058409 16.66492853 7.80100716 16.65038286 3.88096046 16.63263321 C2.73126465 16.64223822 1.58156883 16.65184322 0.39703375 16.66173929 C-1.17444031 16.64701785 -1.17444031 16.64701785 -2.77766132 16.63199902 C-4.13538022 16.63183801 -4.13538022 16.63183801 -5.52052778 16.63167375 C-8.73463736 15.96466708 -9.93259802 14.68915958 -11.93106651 12.13142776 C-12.43106651 8.63142776 -12.43106651 8.63142776 -11.93106651 5.13142776 C-8.56053264 0.71486614 -5.35284996 0.007529 0 0 Z " fill="#000000" transform="translate(114.93106651306152,323.8685722351074)"/>
<path d="M0 0 C1.27018478 -0.01272446 2.54036957 -0.02544891 3.8490448 -0.03855896 C5.2491779 -0.03237708 6.64930917 -0.02577109 8.04943848 -0.01878357 C9.52973795 -0.02584386 11.01003021 -0.03458935 12.49031067 -0.04489136 C16.50480352 -0.0673817 20.51890207 -0.06444681 24.53343391 -0.05556989 C27.88594852 -0.05045815 31.23838915 -0.05775395 34.59089613 -0.06504196 C42.49950604 -0.08203942 50.40792298 -0.07847625 58.31652832 -0.06175232 C66.47431359 -0.04482454 74.63156403 -0.06067461 82.7892909 -0.0929752 C89.79582156 -0.11966613 96.80218568 -0.12694867 103.80876207 -0.11846012 C107.99243575 -0.11353019 112.17578749 -0.11574999 116.35942078 -0.13624763 C120.29293085 -0.15459764 124.22567099 -0.14865536 128.15913963 -0.12404823 C129.6018911 -0.11903835 131.04470117 -0.12253489 132.48740578 -0.13519669 C134.45810547 -0.15112311 136.42899194 -0.13315776 138.3996582 -0.11352539 C139.50208107 -0.11293908 140.60450394 -0.11235277 141.74033356 -0.1117487 C145.6829161 0.72274574 147.19755455 2.42576546 149.6998291 5.5146637 C150.3248291 8.5146637 150.3248291 8.5146637 149.6998291 11.5146637 C147.19755455 14.60356194 145.6829161 16.30658165 141.74033356 17.14107609 C140.08669926 17.14195555 140.08669926 17.14195555 138.3996582 17.14285278 C136.49438103 17.16183372 136.49438103 17.16183372 134.5506134 17.18119812 C133.15047809 17.16988277 131.75034684 17.15805533 130.35021973 17.14576721 C128.86992028 17.15090748 127.38962694 17.15818957 125.90934753 17.16744995 C121.89474242 17.18595901 117.88080172 17.17302901 113.86622429 17.15335965 C109.66316842 17.1369675 105.46015445 17.14578683 101.25708008 17.15087891 C94.19898879 17.15539925 87.14116256 17.13953386 80.08312988 17.11158752 C71.92539432 17.07953576 63.76813681 17.07955147 55.6103673 17.09680229 C47.75985252 17.11267126 39.90951286 17.10593148 32.05900574 17.08886528 C28.71936883 17.08199629 25.37987235 17.08302564 22.04023743 17.09041023 C18.10678579 17.09807677 14.17387757 17.08593553 10.24051857 17.05856133 C8.7977796 17.05168018 7.35498984 17.05157669 5.91225243 17.05877686 C3.94149638 17.06747816 1.97067637 17.04906923 0 17.02932739 C-1.6536343 17.02511701 -1.6536343 17.02511701 -3.34067535 17.02082157 C-6.98908594 16.39683964 -8.67420103 15.0734974 -11.3001709 12.5146637 C-11.9642334 10.5146637 -11.9642334 10.5146637 -11.9251709 8.5146637 C-11.93806152 7.8546637 -11.95095215 7.1946637 -11.9642334 6.5146637 C-10.13390934 1.0021583 -5.19355123 0.0132235 0 0 Z " fill="#000000" transform="translate(114.3001708984375,427.48533630371094)"/>
<path d="M0 0 C1.09485214 -0.0087616 2.18970428 -0.01752319 3.31773376 -0.02655029 C6.93553334 -0.0485505 10.55210994 -0.03398793 14.16992188 -0.01708984 C16.68428787 -0.02045776 19.19865228 -0.02531017 21.7130127 -0.03158569 C26.98214184 -0.03895789 32.25095312 -0.02871671 37.52001953 -0.00488281 C43.6056932 0.02232758 49.69052927 0.01351277 55.77618265 -0.01401484 C61.63835611 -0.03946688 67.50021201 -0.03673747 73.3624115 -0.02210617 C75.85351173 -0.01876942 78.34463332 -0.02286861 80.83570862 -0.03450394 C84.31683064 -0.04719503 87.7963418 -0.02785685 91.27734375 0 C92.3081456 -0.01012115 93.33894745 -0.02024231 94.40098572 -0.03067017 C99.13248639 0.03951787 101.40258242 0.09534915 105.27844238 2.99990845 C107.13867188 5.64697266 107.13867188 5.64697266 107.76367188 8.64697266 C106.88935442 12.84369643 105.57494433 14.07183909 102.13867188 16.64697266 C98.52192135 17.39252378 94.95959956 17.33010035 91.27734375 17.29394531 C90.18249161 17.30270691 89.08763947 17.31146851 87.95960999 17.32049561 C84.34181041 17.34249581 80.72523381 17.32793324 77.10742188 17.31103516 C74.59305588 17.31440307 72.07869147 17.31925548 69.56433105 17.32553101 C64.29520191 17.3329032 59.02639063 17.32266202 53.75732422 17.29882812 C47.67165055 17.27161773 41.58681448 17.28043254 35.5011611 17.30796015 C29.63898764 17.33341219 23.77713174 17.33068278 17.91493225 17.31605148 C15.42383202 17.31271473 12.93271043 17.31681393 10.44163513 17.32844925 C6.96051311 17.34114035 3.48100195 17.32180217 0 17.29394531 C-1.03080185 17.30406647 -2.0616037 17.31418762 -3.12364197 17.32461548 C-7.85514264 17.25442745 -10.12523867 17.19859616 -14.00109863 14.29403687 C-15.86132812 11.64697266 -15.86132812 11.64697266 -16.48632812 8.64697266 C-14.6204928 -0.30903692 -7.56748677 -0.07430303 0 0 Z " fill="#000000" transform="translate(302.861328125,184.35302734375)"/>
<path d="M0 0 C0.93093979 -0.00426498 1.86187958 -0.00852997 2.82102966 -0.01292419 C3.84548691 -0.01247101 4.86994415 -0.01201782 5.92544556 -0.0115509 C7.00195877 -0.01490952 8.07847198 -0.01826813 9.18760681 -0.02172852 C12.76120138 -0.03126009 16.33474921 -0.03318276 19.90835571 -0.03425598 C22.38456237 -0.03746713 24.86076884 -0.04083109 27.3369751 -0.04434204 C32.53395019 -0.05033891 37.73090865 -0.05218138 42.92788696 -0.05158997 C49.59520827 -0.05092328 56.26240726 -0.06513912 62.92970848 -0.08236217 C68.04600517 -0.09346777 73.16227601 -0.09550961 78.27858353 -0.09498024 C80.73701977 -0.09616259 83.19545664 -0.10059854 85.65388107 -0.10831261 C89.08953099 -0.11808296 92.52494834 -0.115246 95.96060181 -0.10920715 C96.98101059 -0.11482666 98.00141937 -0.12044617 99.05274963 -0.12623596 C100.45761879 -0.11994423 100.45761879 -0.11994423 101.89086914 -0.11352539 C102.7031365 -0.11407016 103.51540386 -0.11461493 104.35228539 -0.1151762 C106.84325543 0.16407509 108.43996988 0.83475287 110.57241821 2.13371277 C112.66921224 4.8295908 112.56752642 6.22665677 112.38491821 9.69621277 C111.56373532 13.1704481 111.31327704 14.07464973 108.57241821 16.13371277 C106.41845036 16.5140295 106.41845036 16.5140295 103.87272644 16.52139282 C102.42376984 16.53624977 102.42376984 16.53624977 100.94554138 16.55140686 C99.88727646 16.54690521 98.82901154 16.54240356 97.73867798 16.5377655 C96.62300446 16.54462875 95.50733093 16.551492 94.35784912 16.55856323 C90.65971245 16.57690595 86.96199699 16.57298293 83.26382446 16.56730652 C80.69936484 16.57186475 78.13490644 16.57716924 75.57044983 16.58319092 C70.19108542 16.59213677 64.81188352 16.58991499 59.43252563 16.57975769 C53.21521237 16.56827754 46.99833051 16.58234834 40.78107411 16.60915416 C34.79934251 16.63397858 28.817833 16.63648995 22.8360424 16.63003731 C20.2910789 16.62988364 17.74610726 16.63596522 15.20117378 16.64832878 C11.64563822 16.66316691 8.09105816 16.65261335 4.53555298 16.63542175 C3.47931229 16.64508972 2.42307159 16.65475769 1.33482361 16.66471863 C-5.75548477 16.59274534 -5.75548477 16.59274534 -9.08152771 14.32110596 C-11.07499027 11.08164737 -10.95918225 8.85491598 -10.42758179 5.13371277 C-7.28187652 1.14915277 -4.95721116 0.01023706 0 0 Z " fill="#000000" transform="translate(297.4275817871094,143.8662872314453)"/>
</svg>
